<?xml version="1.0" standalone="no"?>
<!DOCTYPE svg PUBLIC "-//W3C//DTD SVG 20010904//EN"
 "http://www.w3.org/TR/2001/REC-SVG-20010904/DTD/svg10.dtd">
<svg version="1.0" xmlns="http://www.w3.org/2000/svg"
 width="512.000000pt" height="512.000000pt" viewBox="0 0 512.000000 512.000000"
 preserveAspectRatio="xMidYMid meet">

<g transform="translate(0.000000,512.000000) scale(0.100000,-0.100000)"
fill="#d53f8c" stroke="none">
<path d="M3620 5109 c-145 -17 -319 -84 -445 -174 -73 -52 -187 -170 -238
-248 -52 -78 -103 -191 -130 -285 -22 -77 -22 -79 -25 -1199 -1 -618 -4 -1123
-7 -1123 -2 0 -40 25 -85 55 -220 150 -446 213 -719 202 -217 -8 -423 -76
-602 -198 -81 -55 -216 -185 -280 -269 -69 -90 -163 -285 -196 -405 -24 -91
-27 -116 -27 -285 -1 -160 2 -197 22 -275 186 -734 972 -1107 1647 -781 369
178 613 529 655 945 6 66 10 650 10 1640 0 1691 -4 1574 60 1701 58 115 182
219 310 262 60 20 92 22 415 27 377 6 381 7 431 63 79 86 77 212 -4 291 -64
62 -95 67 -426 66 -160 -1 -325 -5 -366 -10z"/>
</g>
</svg>
